HIERARCHY
ROOT Hips
{
	OFFSET 0.000000 0.000000 0.000000
	CHANNELS 6 Xposition Yposition Zposition Zrotation Yrotation Xrotation 
	JOINT LHipJoint
	{
		OFFSET 0.000000 0.000000 0.000000
		CHANNELS 3 Zrotation Yrotation Xrotation
		JOINT LeftUpLeg
		{
			OFFSET 1.363060 -1.794630 0.839290
			CHANNELS 3 Zrotation Yrotation Xrotation
			JOINT LeftLeg
			{
				OFFSET 2.448110 -6.726130 0.000000
				CHANNELS 3 Zrotation Yrotation Xrotation
				JOINT LeftFoot
				{
					OFFSET 2.562200 -7.039590 0.000000
					CHANNELS 3 Zrotation Yrotation Xrotation
					JOINT LeftToeBase
					{
						OFFSET 0.157640 -0.433110 2.322550
						CHANNELS 3 Zrotation Yrotation Xrotation
						End Site
						{
							OFFSET 0.000000 0.000000 0.000000
						}
					}
				}
			}
		}
	}
	JOINT RHipJoint
	{
		OFFSET 0.000000 0.000000 0.000000
		CHANNELS 3 Zrotation Yrotation Xrotation
		JOINT RightUpLeg
		{
			OFFSET -1.305520 -1.794630 0.839290
			CHANNELS 3 Zrotation Yrotation Xrotation
			JOINT RightLeg
			{
				OFFSET -2.542530 -6.985550 0.000000
				CHANNELS 3 Zrotation Yrotation Xrotation
				JOINT RightFoot
				{
					OFFSET -2.568260 -7.056230 0.000000
					CHANNELS 3 Zrotation Yrotation Xrotation
					JOINT RightToeBase
					{
						OFFSET -0.164730 -0.452590 2.363150
						CHANNELS 3 Zrotation Yrotation Xrotation
						End Site
						{
							OFFSET 0.000000 0.000000 0.000000
						}
					}
				}
			}
		}
	}
}
MOTION
Frames: 25
Frame Time: 0.008333
24.189660 15.524350 4.244962 12.844797 -79.928106 -3.920787 -10.656712 6.965106 2.106424 4.285322 9.643183 20.223497 -0.866095 0.898823 7.627301 0.350417 0.516983 12.380489 0.149301 0.000000 -90.659300 9.417126 1.032425 2.238102 11.028637 -7.447836 -58.409376 0.797508 -4.150905 58.773858 -4.693710 -14.311155 -29.308136 -174.841999 -0.000000 -1.469100
23.928975 15.530913 4.201940 12.305487 -79.978983 -3.438909 -10.682600 7.112539 2.232722 4.734713 9.235518 19.950737 -0.654317 1.081969 8.847996 0.480756 0.539347 15.561238 0.090000 0.000000 -91.880800 9.446913 0.948603 2.131566 11.357083 -7.505691 -57.680940 0.743866 -4.174840 59.698394 -4.769868 -14.671538 -30.038721 -174.496700 0.000000 -3.877800
23.668489 15.539404 4.158141 11.735974 -80.062283 -2.954767 -10.716456 7.233756 2.356045 5.128194 8.785480 19.568115 -0.430494 1.248765 10.299706 0.649254 0.597780 18.778957 0.024100 -0.000000 -91.903200 9.476970 0.858045 1.998067 11.716332 -7.649319 -56.865893 0.715886 -4.189587 60.465887 -4.787498 -14.793571 -30.629651 -174.255800 -0.000000 -5.754000
23.409061 15.549472 4.113391 11.183297 -80.176735 -2.519109 -10.757279 7.320541 2.472744 5.452189 8.307807 19.073499 -0.206547 1.390405 12.005956 0.848319 0.706039 21.891968 -0.029600 -0.000000 -90.450100 9.508930 0.761984 1.837565 12.088811 -7.884357 -55.954720 0.712177 -4.194460 61.076686 -4.749751 -14.682754 -31.090375 -174.123700 0.000000 -7.120600
23.151804 15.560728 4.067645 10.687698 -80.322413 -2.180345 -10.803346 7.366313 2.574971 5.701877 7.833142 18.464990 0.002680 1.502459 13.986142 1.063973 0.888546 24.721346 -0.042700 -0.000000 -87.360400 9.544178 0.661216 1.651941 12.455983 -8.208527 -54.939369 0.729923 -4.189185 61.537897 -4.663938 -14.364573 -31.439345 -174.092500 -0.000001 -8.016799
22.897391 15.572858 4.020935 10.285409 -80.500041 -1.976744 -10.851941 7.369075 2.652808 5.879491 7.400442 17.740370 0.183430 1.587174 16.245782 1.279021 1.191426 27.077976 0.025100 0.000000 -82.706300 9.583664 0.555075 1.445815 12.800213 -8.611272 -53.813853 0.765473 -4.173964 61.860057 -4.540925 -13.880847 -31.702003 -174.144600 -0.000000 -8.489200
22.646098 15.585576 3.973275 10.003369 -80.709147 -1.937698 -10.899910 7.331387 2.695187 5.994039 7.054853 16.893198 0.327309 1.653882 18.781574 1.477361 1.675113 28.790458 0.218400 0.000000 -76.792600 9.627886 0.442242 1.226627 13.105458 -9.074432 -52.576835 0.814466 -4.149458 62.057213 -4.394116 -13.285545 -31.908547 -174.255200 0.000000 -8.593900
22.398383 15.598643 3.924759 9.851845 -80.948820 -2.071856 -10.945136 7.259440 2.693220 6.060107 6.837520 15.910858 0.433898 1.715882 21.582152 1.648375 2.397229 29.736787 0.570399 0.000000 -70.127000 9.676421 0.321130 1.004161 13.361368 -9.572039 -51.233502 0.872404 -4.116537 62.145221 -4.238493 -12.639303 -32.092711 -174.395700 0.000000 -8.393900
22.154165 15.611974 3.875558 9.847425 -81.218141 -2.387496 -10.985291 7.159047 2.643668 6.072499 6.751271 14.799003 0.510984 1.785608 24.600303 1.791427 3.430565 29.882123 1.109200 -0.000000 -63.440299 9.728327 0.191354 0.786344 13.559160 -10.076489 -49.793662 0.935607 -4.076892 62.139273 -4.088068 -11.998840 -32.288306 -174.538500 0.000000 -7.954200
21.913574 15.625549 3.825848 9.997779 -81.516854 -2.883707 -11.020475 7.035903 2.547253 6.031551 6.798244 13.551872 0.568439 1.872090 27.804335 1.909967 4.792278 29.222912 1.813700 -0.000000 -57.209500 9.782493 0.053908 0.582240 13.695921 -10.557051 -48.272702 1.000633 -4.031658 62.054401 -3.955481 -11.415662 -32.525892 -174.659100 -0.000000 -7.344500
21.676245 15.639518 3.775826 10.315320 -81.840955 -3.560557 -11.051599 6.893329 2.408555 5.931794 6.962852 12.170236 0.616687 1.978998 31.154443 2.010991 6.466167 27.784644 2.626200 -0.000000 -51.648300 9.837158 -0.091360 0.399153 13.772450 -10.986925 -46.688084 1.065295 -3.982330 61.901803 -3.850279 -10.928869 -32.829567 -174.738100 -0.000000 -6.628500
21.441840 15.654028 3.725656 10.823166 -82.188559 -4.426924 -11.080172 6.732993 2.236104 5.758751 7.212996 10.662266 0.663526 2.104973 34.593092 2.106537 8.419878 25.648009 3.468000 -0.000000 -47.122000 9.891038 -0.241357 0.241021 13.791549 -11.344233 -45.059126 1.128211 -3.930113 61.690088 -3.778172 -10.562385 -33.214418 -174.763000 -0.000000 -5.861300
21.210019 15.669211 3.675586 11.506726 -82.557870 -5.456484 -11.109678 6.557735 2.037378 5.520112 7.537951 9.019673 0.711085 2.247173 38.089010 2.203327 10.552643 22.839636 4.211600 -0.000000 -43.148499 9.941701 -0.394187 0.112274 13.766975 -11.609398 -43.405443 1.188421 -3.874970 61.423851 -3.741861 -10.328270 -33.683952 -174.726600 -0.000000 -5.087100
20.980608 15.685254 3.625805 12.361077 -82.944905 -6.633023 -11.142289 6.369126 1.822535 5.213316 7.908410 7.248598 0.758942 2.399728 41.587526 2.311650 12.776102 19.448562 4.743201 0.000000 -39.581000 9.987247 -0.547259 0.013430 13.711967 -11.773126 -41.744455 1.245682 -3.817030 61.104495 -3.740125 -10.223247 -34.230314 -174.629100 -0.000000 -4.333300
20.753143 15.702255 3.576477 13.386981 -83.344442 -7.947857 -11.179097 6.168134 1.601868 4.834619 8.289998 5.359261 0.804162 2.555920 45.030822 2.441230 15.004124 15.600419 4.968500 -0.000000 -36.307599 10.026368 -0.698015 -0.058027 13.638128 -11.835466 -40.089096 1.300306 -3.756422 60.729819 -3.768337 -10.230736 -34.834656 -174.477500 0.000000 -3.606000
20.527450 15.720262 3.527716 14.578903 -83.749748 -9.391225 -11.219979 5.956541 1.384219 4.384789 8.653739 3.360862 0.842050 2.710608 48.373062 2.596486 17.146358 11.414680 4.816400 -0.000000 -32.991600 10.058290 -0.844241 -0.106010 13.556327 -11.804662 -38.448640 1.352783 -3.693052 60.295828 -3.819626 -10.325575 -35.470168 -174.284300 0.000000 -2.897800
20.303313 15.739234 3.479556 15.950918 -84.152184 -10.974153 -11.263234 5.735996 1.177632 3.861402 8.967851 1.266297 0.868818 2.859709 51.572206 2.777912 19.131231 7.040107 4.264000 0.000000 -29.473500 10.083388 -0.983980 -0.136535 13.471464 -11.697516 -36.827230 1.403864 -3.627092 59.797448 -3.885279 -10.475772 -36.104664 -174.067100 -0.000000 -2.182400
20.080730 15.759008 3.432060 17.520672 -84.543053 -12.715628 -11.306260 5.508518 0.989394 3.262944 9.203523 -0.911984 0.882900 3.000661 54.595685 2.980523 20.903773 2.640919 3.341300 0.000000 -25.757000 10.102776 -1.115550 -0.156024 13.385189 -11.536406 -35.226859 1.454260 -3.558686 59.230958 -3.956200 -10.647957 -36.705811 -173.845900 0.000001 -1.430700
19.859338 15.779408 3.385270 19.324179 -84.913314 -14.652171 -11.345898 5.275800 0.824133 2.588300 9.339169 -3.161902 0.884987 3.132373 57.421289 3.193581 22.421089 -1.628083 2.124200 0.000000 -21.897300 10.118338 -1.237692 -0.171561 13.294700 -11.346912 -33.646351 1.504719 -3.488133 58.593393 -4.023671 -10.810419 -37.243628 -173.641000 -0.000000 -0.608900
19.639266 15.800060 3.339302 21.396588 -85.255830 -16.823468 -11.378809 5.039491 0.684931 1.839103 9.361907 -5.472173 0.877570 3.254610 60.034954 3.402519 23.649614 -5.634183 0.722299 -0.000000 -18.003200 10.132426 -1.349498 -0.189247 13.195199 -11.155001 -32.083460 1.555645 -3.415574 57.884962 -4.080503 -10.937693 -37.694506 6.530000 -0.000001 -0.313500
19.420257 15.820624 3.294321 23.767381 -85.566610 -19.262522 -11.402030 4.800517 0.572883 1.019944 9.267472 -7.831517 0.864627 3.367300 62.426007 3.591872 24.566878 -9.256739 -0.730600 0.000000 -14.365401 10.147434 -1.450400 -0.214628 13.081515 -10.983910 -30.535159 1.607239 -3.341137 57.108358 -4.121761 -11.012783 -38.043658 6.654800 0.000000 -1.355000
19.202136 15.840718 3.250542 26.461770 -85.844446 -22.001114 -11.412473 4.559534 0.486979 0.138505 9.063139 -10.229250 0.848101 3.470559 64.589903 3.747077 25.150776 -12.452338 -2.122100 0.000000 -10.931199 10.165780 -1.540461 -0.251155 12.948414 -10.852704 -28.998162 1.659293 -3.264785 56.268088 -4.144919 -11.028411 -38.284463 6.727600 0.000000 -2.528000
18.984829 15.860005 3.208303 29.493957 -86.091848 -25.055733 -11.407964 4.316135 0.425793 -0.794006 8.760598 -12.653952 0.831058 3.563374 66.516821 3.857782 25.399097 -15.160376 -3.339800 0.000000 -8.047300 10.189171 -1.620608 -0.301180 12.793161 -10.774057 -27.469465 1.711558 -3.186690 55.370740 -4.150007 -10.986031 -38.420483 6.749000 0.000001 -3.830000
18.767993 15.878210 3.167857 32.876494 -86.312351 -28.443831 -11.386311 4.069412 0.385933 -1.765421 8.380105 -15.095516 0.811117 3.644923 68.203232 3.919588 25.317050 -17.439880 -4.343300 -0.000001 -5.296200 10.218695 -1.692503 -0.364629 12.613380 -10.754727 -25.947402 1.763617 -3.107013 54.423164 -4.139148 -10.894902 -38.462475 6.725499 0.000000 -5.249800
18.551026 15.895290 3.129480 36.638800 -86.509845 -32.195140 -11.347514 3.816013 0.364360 -2.762751 7.939552 -17.541936 0.791471 3.712234 69.631163 3.932492 24.944748 -19.233621 -5.069200 -0.000000 -3.364500 10.253678 -1.758643 -0.441766 12.408353 -10.794152 -24.431448 1.815273 -3.026667 53.430424 -4.115470 -10.768535 -38.422137 6.666300 -0.000000 -6.805300
